<?xml version="1.0" encoding="utf-8"?>
<!-- Generator: Adobe Illustrator 19.2.1, SVG Export Plug-In . SVG Version: 6.00 Build 0)  -->
<svg version="1.1" id="Ebene_1" xmlns="http://www.w3.org/2000/svg" xmlns:xlink="http://www.w3.org/1999/xlink" x="0px" y="0px"
	 viewBox="0 0 725 320" style="enable-background:new 0 0 725 320;" xml:space="preserve">
<style type="text/css">
	.st0{fill:#003399;}
	.st1{fill:#FDEB00;}
	.st2{fill:#FFFFFF;}
</style>
<path class="st0" d="M160.8,320H25.5C11.4,320,0,308.4,0,294V26.1C0,11.7,11.4,0,25.5,0h135.2v320H160.8z"/>
<polygon class="st1" points="78.7,28.5 81.8,34.7 88.7,35.7 83.7,40.5 84.9,47.4 78.7,44.2 72.6,47.4 73.7,40.5 68.8,35.7 
	75.7,34.7 "/>
<polygon class="st1" points="104.7,35.9 107.8,42.1 114.6,43.1 109.7,48 110.8,54.8 104.7,51.6 98.5,54.8 99.7,48 94.7,43.1 
	101.6,42.1 "/>
<polygon class="st1" points="124.6,52.8 127.7,59 134.6,60 129.6,64.8 130.8,71.7 124.6,68.5 118.4,71.7 119.6,64.8 114.6,60 
	121.5,59 "/>
<polygon class="st1" points="131.2,77.8 134.3,84 141.1,85 136.2,89.9 137.3,96.7 131.2,93.5 125,96.7 126.2,89.9 121.2,85 
	128.1,84 "/>
<polygon class="st1" points="54.4,35.9 51.3,42.1 44.5,43.1 49.4,48 48.3,54.8 54.4,51.6 60.6,54.8 59.4,48 64.4,43.1 57.5,42.1 "/>
<polygon class="st1" points="36.2,52.8 33.1,59 26.2,60 31.2,64.8 30,71.7 36.2,68.5 42.3,71.7 41.1,64.8 46.1,60 39.2,59 "/>
<polygon class="st1" points="29.6,77.8 26.5,84 19.6,85 24.6,89.9 23.4,96.7 29.6,93.5 35.7,96.7 34.5,89.9 39.5,85 32.6,84 "/>
<polygon class="st1" points="78.7,127.2 81.8,133.4 88.7,134.4 83.7,139.2 84.9,146.1 78.7,142.9 72.6,146.1 73.7,139.2 68.8,134.4 
	75.7,133.4 "/>
<polygon class="st1" points="104.7,121.4 107.8,127.6 114.6,128.6 109.7,133.5 110.8,140.3 104.7,137.1 98.5,140.3 99.7,133.5 
	94.7,128.6 101.6,127.6 "/>
<polygon class="st1" points="124.6,102.9 127.7,109.1 134.6,110.1 129.6,114.9 130.8,121.8 124.6,118.6 118.4,121.8 119.6,114.9 
	114.6,110.1 121.5,109.1 "/>
<polygon class="st1" points="54.4,119.7 51.3,126 44.5,127 49.4,131.8 48.3,138.7 54.4,135.5 60.6,138.7 59.4,131.8 64.4,127 
	57.5,126 "/>
<polygon class="st1" points="36.2,102.9 33.1,109.1 26.2,110.1 31.2,114.9 30,121.8 36.2,118.6 42.3,121.8 41.1,114.9 46.1,110.1 
	39.2,109.1 "/>
<g>
	<path class="st2" d="M55.9,214.8h24c17.9,0,25.6,13,25.6,29s-7.7,29-25.6,29h-24V214.8z M66.1,264.5h10c15.9,0,19.3-9.1,19.3-20.7
		S92,223,76.1,223h-10V264.5z"/>
</g>
</svg>
